<svg xmlns="http://www.w3.org/2000/svg" xmlns:xlink="http://www.w3.org/1999/xlink" width="650" zoomAndPan="magnify" viewBox="0 0 487.5 337.499995" height="450" preserveAspectRatio="xMidYMid meet" version="1.2"><defs><clipPath id="0854a71ecd"><path d="M 0.109375 71.085938 L 109.585938 71.085938 L 109.585938 336.648438 L 0.109375 336.648438 Z M 0.109375 71.085938 "/></clipPath><clipPath id="8d15c50d1a"><path d="M 109.585938 83.457031 L 109.585938 324.199219 C 109.585938 331.03125 104.046875 336.570312 97.214844 336.570312 L 12.480469 336.570312 C 5.648438 336.570312 0.109375 331.03125 0.109375 324.199219 L 0.109375 83.457031 C 0.109375 76.625 5.648438 71.085938 12.480469 71.085938 L 97.214844 71.085938 C 104.046875 71.085938 109.585938 76.625 109.585938 83.457031 Z M 109.585938 83.457031 "/></clipPath><clipPath id="1f5510b0e2"><path d="M 109.585938 33.699219 L 219.058594 33.699219 L 219.058594 336.890625 L 109.585938 336.890625 Z M 109.585938 33.699219 "/></clipPath><clipPath id="148be6556d"><path d="M 219.058594 46.070312 L 219.058594 324.195312 C 219.058594 331.027344 213.519531 336.566406 206.6875 336.566406 L 121.957031 336.566406 C 115.125 336.566406 109.585938 331.027344 109.585938 324.195312 L 109.585938 46.070312 C 109.585938 39.238281 115.125 33.699219 121.957031 33.699219 L 206.6875 33.699219 C 213.519531 33.699219 219.058594 39.238281 219.058594 46.070312 Z M 219.058594 46.070312 "/></clipPath><clipPath id="83f84443ec"><path d="M 219.058594 0 L 328.53125 0 L 328.53125 336.976562 L 219.058594 336.976562 Z M 219.058594 0 "/></clipPath><clipPath id="08185aae68"><path d="M 328.53125 12.371094 L 328.53125 324.1875 C 328.53125 331.019531 322.996094 336.558594 316.160156 336.558594 L 231.429688 336.558594 C 224.597656 336.558594 219.058594 331.019531 219.058594 324.1875 L 219.058594 12.371094 C 219.058594 5.539062 224.597656 0 231.429688 0 L 316.160156 0 C 322.996094 0 328.53125 5.539062 328.53125 12.371094 Z M 328.53125 12.371094 "/></clipPath><clipPath id="8338367807"><path d="M 326 6 L 485 6 L 485 337 L 326 337 Z M 326 6 "/></clipPath><clipPath id="7e155d2dfa"><path d="M 324.925781 23.8125 L 428.585938 4.847656 L 486.441406 321.089844 L 382.78125 340.054688 Z M 324.925781 23.8125 "/></clipPath><clipPath id="62b75350b5"><path d="M 430.8125 17.019531 L 484.148438 308.570312 C 485.378906 315.292969 480.925781 321.738281 474.207031 322.964844 L 394.886719 337.476562 C 388.164062 338.707031 381.71875 334.253906 380.492188 327.535156 L 327.152344 35.980469 C 325.925781 29.261719 330.375 22.816406 337.097656 21.585938 L 416.417969 7.074219 C 423.136719 5.847656 429.582031 10.296875 430.8125 17.019531 Z M 430.8125 17.019531 "/></clipPath></defs><g id="f2019babfa"><g clip-rule="nonzero" clip-path="url(#0854a71ecd)"><g clip-rule="nonzero" clip-path="url(#8d15c50d1a)"><path style=" stroke:none;fill-rule:nonzero;fill:#150c27;fill-opacity:1;" d="M 0.109375 71.085938 L 109.585938 71.085938 L 109.585938 336.648438 L 0.109375 336.648438 Z M 0.109375 71.085938 "/></g></g><g clip-rule="nonzero" clip-path="url(#1f5510b0e2)"><g clip-rule="nonzero" clip-path="url(#148be6556d)"><path style=" stroke:none;fill-rule:nonzero;fill:#efcb67;fill-opacity:1;" d="M 109.585938 33.699219 L 219.058594 33.699219 L 219.058594 336.464844 L 109.585938 336.464844 Z M 109.585938 33.699219 "/></g></g><g clip-rule="nonzero" clip-path="url(#83f84443ec)"><g clip-rule="nonzero" clip-path="url(#08185aae68)"><path style=" stroke:none;fill-rule:nonzero;fill:#150c27;fill-opacity:1;" d="M 219.058594 0 L 328.535156 0 L 328.535156 336.546875 L 219.058594 336.546875 Z M 219.058594 0 "/></g></g><g clip-rule="nonzero" clip-path="url(#8338367807)"><g clip-rule="nonzero" clip-path="url(#7e155d2dfa)"><g clip-rule="nonzero" clip-path="url(#62b75350b5)"><path style=" stroke:none;fill-rule:nonzero;fill:#efcb67;fill-opacity:1;" d="M 324.925781 23.8125 L 428.585938 4.847656 L 486.367188 320.683594 L 382.707031 339.648438 Z M 324.925781 23.8125 "/></g></g></g></g></svg>