<svg xmlns="http://www.w3.org/2000/svg" xmlns:xlink="http://www.w3.org/1999/xlink" width="500" zoomAndPan="magnify" viewBox="0 0 375 168.749997" height="225" preserveAspectRatio="xMidYMid meet" version="1.2"><defs><clipPath id="7d9eb6158d"><path d="M 0.617188 0 L 120.441406 0 L 120.441406 119.824219 L 0.617188 119.824219 Z M 0.617188 0 "/></clipPath></defs><g id="ca0ec8a7c4"><g style="fill:#00040f;fill-opacity:1;"><g transform="translate(130.978632, 96.034954)"><path style="stroke:none" d="M 41.328125 2.296875 C 35.472656 2.296875 29.914062 1.613281 24.65625 0.25 C 19.40625 -1.113281 14.8125 -3.125 10.875 -5.78125 C 6.945312 -8.445312 4.054688 -11.710938 2.203125 -15.578125 L 16.28125 -25.265625 C 17.875 -22.992188 20.050781 -20.992188 22.8125 -19.265625 C 25.570312 -17.535156 28.664062 -16.1875 32.09375 -15.21875 C 35.519531 -14.257812 39.035156 -13.78125 42.640625 -13.78125 C 46.960938 -13.78125 50.390625 -14.378906 52.921875 -15.578125 C 55.453125 -16.773438 56.71875 -18.375 56.71875 -20.375 C 56.71875 -22.03125 55.703125 -23.375 53.671875 -24.40625 C 51.640625 -25.4375 48.359375 -26.253906 43.828125 -26.859375 L 32.65625 -28.359375 C 22.601562 -29.691406 15.296875 -32.070312 10.734375 -35.5 C 6.171875 -38.925781 3.890625 -43.734375 3.890625 -49.921875 C 3.960938 -54.984375 5.578125 -59.289062 8.734375 -62.84375 C 11.898438 -66.40625 16.257812 -69.132812 21.8125 -71.03125 C 27.375 -72.9375 33.75 -73.890625 40.9375 -73.890625 C 46.0625 -73.890625 50.867188 -73.269531 55.359375 -72.03125 C 59.859375 -70.800781 63.800781 -69.070312 67.1875 -66.84375 C 70.582031 -64.613281 73.144531 -61.96875 74.875 -58.90625 L 61.703125 -49.21875 C 59.578125 -52.019531 56.613281 -54.21875 52.8125 -55.8125 C 49.019531 -57.40625 45.03125 -58.203125 40.84375 -58.203125 C 36.84375 -58.140625 33.59375 -57.523438 31.09375 -56.359375 C 28.601562 -55.191406 27.359375 -53.644531 27.359375 -51.71875 C 27.359375 -50.25 28.253906 -49.050781 30.046875 -48.125 C 31.847656 -47.195312 34.742188 -46.460938 38.734375 -45.921875 L 50.015625 -44.53125 C 60.472656 -43.269531 68.078125 -40.890625 72.828125 -37.390625 C 77.585938 -33.898438 79.96875 -28.957031 79.96875 -22.5625 C 79.96875 -17.4375 78.351562 -13.007812 75.125 -9.28125 C 71.90625 -5.550781 67.398438 -2.6875 61.609375 -0.6875 C 55.816406 1.300781 49.054688 2.296875 41.328125 2.296875 Z M 41.328125 2.296875 "/></g></g><g style="fill:#00040f;fill-opacity:1;"><g transform="translate(212.554627, 96.034954)"><path style="stroke:none" d="M 5.09375 0 L 5.09375 -71.484375 L 54.609375 -71.484375 C 63.203125 -71.484375 69.84375 -69.785156 74.53125 -66.390625 C 79.226562 -62.992188 81.578125 -58.171875 81.578125 -51.921875 C 81.578125 -48.128906 80.523438 -44.898438 78.421875 -42.234375 C 76.328125 -39.566406 73.316406 -37.671875 69.390625 -36.546875 L 69.390625 -36.34375 C 73.785156 -35.34375 77.179688 -33.394531 79.578125 -30.5 C 81.972656 -27.601562 83.171875 -23.992188 83.171875 -19.671875 C 83.171875 -13.410156 80.835938 -8.566406 76.171875 -5.140625 C 71.515625 -1.710938 64.894531 0 56.3125 0 Z M 29.15625 -42.640625 L 48.53125 -42.640625 C 51.382812 -42.640625 53.59375 -43.253906 55.15625 -44.484375 C 56.726562 -45.710938 57.515625 -47.457031 57.515625 -49.71875 C 57.515625 -51.914062 56.726562 -53.613281 55.15625 -54.8125 C 53.59375 -56.007812 51.382812 -56.609375 48.53125 -56.609375 L 29.15625 -56.609375 Z M 29.15625 -14.875 L 49.515625 -14.875 C 52.578125 -14.875 54.941406 -15.519531 56.609375 -16.8125 C 58.273438 -18.113281 59.109375 -19.898438 59.109375 -22.171875 C 59.109375 -24.628906 58.273438 -26.523438 56.609375 -27.859375 C 54.941406 -29.191406 52.578125 -29.859375 49.515625 -29.859375 L 29.15625 -29.859375 Z M 29.15625 -14.875 "/></g></g><g style="fill:#00040f;fill-opacity:1;"><g transform="translate(298.124553, 96.034954)"><path style="stroke:none" d="M 5.09375 0 L 5.09375 -71.484375 L 29.15625 -71.484375 L 29.15625 -18.875 L 64 -18.875 L 64 0 Z M 5.09375 0 "/></g></g><g style="fill:#111111;fill-opacity:1;"><g transform="translate(16.015772, 156.819817)"><path style="stroke:none" d="M 11.203125 0.6875 C 9.347656 0.6875 7.671875 0.457031 6.171875 0 C 4.671875 -0.457031 3.40625 -1.097656 2.375 -1.921875 C 1.351562 -2.753906 0.625 -3.722656 0.1875 -4.828125 L 4.96875 -7.546875 C 5.488281 -6.503906 6.367188 -5.675781 7.609375 -5.0625 C 8.847656 -4.445312 10.253906 -4.140625 11.828125 -4.140625 C 13.066406 -4.140625 14.050781 -4.304688 14.78125 -4.640625 C 15.507812 -4.984375 15.875 -5.472656 15.875 -6.109375 C 15.875 -6.566406 15.601562 -6.957031 15.0625 -7.28125 C 14.519531 -7.613281 13.753906 -7.882812 12.765625 -8.09375 L 9.796875 -8.53125 C 7.179688 -8.9375 5.269531 -9.609375 4.0625 -10.546875 C 2.851562 -11.484375 2.25 -12.78125 2.25 -14.4375 C 2.25 -15.738281 2.53125 -16.875 3.09375 -17.84375 C 3.664062 -18.8125 4.457031 -19.613281 5.46875 -20.25 C 6.476562 -20.882812 7.644531 -21.359375 8.96875 -21.671875 C 10.300781 -21.984375 11.710938 -22.140625 13.203125 -22.140625 C 15.828125 -22.140625 17.988281 -21.691406 19.6875 -20.796875 C 21.394531 -19.910156 22.550781 -18.75 23.15625 -17.3125 L 18.65625 -14.703125 C 18.21875 -15.566406 17.515625 -16.238281 16.546875 -16.71875 C 15.578125 -17.195312 14.460938 -17.4375 13.203125 -17.4375 C 12.085938 -17.4375 11.171875 -17.269531 10.453125 -16.9375 C 9.734375 -16.601562 9.375 -16.160156 9.375 -15.609375 C 9.375 -15.171875 9.640625 -14.804688 10.171875 -14.515625 C 10.703125 -14.222656 11.445312 -13.988281 12.40625 -13.8125 L 15.1875 -13.359375 C 17.90625 -12.921875 19.878906 -12.203125 21.109375 -11.203125 C 22.347656 -10.203125 22.96875 -8.8125 22.96875 -7.03125 C 22.96875 -5.78125 22.65625 -4.671875 22.03125 -3.703125 C 21.414062 -2.734375 20.566406 -1.921875 19.484375 -1.265625 C 18.398438 -0.617188 17.144531 -0.132812 15.71875 0.1875 C 14.300781 0.519531 12.796875 0.6875 11.203125 0.6875 Z M 11.203125 0.6875 "/></g></g><g style="fill:#111111;fill-opacity:1;"><g transform="translate(39.620781, 156.819817)"><path style="stroke:none" d="M 5.9375 -17.046875 C 4.976562 -17.046875 4.210938 -17.300781 3.640625 -17.8125 C 3.066406 -18.320312 2.78125 -18.984375 2.78125 -19.796875 C 2.78125 -20.554688 2.960938 -21.222656 3.328125 -21.796875 C 3.703125 -22.378906 4.203125 -22.832031 4.828125 -23.15625 C 5.460938 -23.488281 6.160156 -23.65625 6.921875 -23.65625 C 7.878906 -23.65625 8.640625 -23.40625 9.203125 -22.90625 C 9.773438 -22.414062 10.0625 -21.75 10.0625 -20.90625 C 10.0625 -20.1875 9.875 -19.53125 9.5 -18.9375 C 9.132812 -18.351562 8.640625 -17.890625 8.015625 -17.546875 C 7.398438 -17.210938 6.707031 -17.046875 5.9375 -17.046875 Z M -0.0625 0 L 2.390625 -15.484375 L 8.859375 -15.484375 L 6.4375 0 Z M -0.0625 0 "/></g></g><g style="fill:#111111;fill-opacity:1;"><g transform="translate(48.45768, 156.819817)"><path style="stroke:none" d="M -0.09375 0 L 2.34375 -15.484375 L 7.609375 -15.484375 L 8.03125 -11.953125 L 8.0625 -11.953125 C 8.757812 -13.171875 9.710938 -14.128906 10.921875 -14.828125 C 12.128906 -15.523438 13.429688 -15.875 14.828125 -15.875 C 16.265625 -15.875 17.375 -15.523438 18.15625 -14.828125 C 18.945312 -14.128906 19.414062 -13.148438 19.5625 -11.890625 L 19.59375 -11.890625 C 20.351562 -13.148438 21.347656 -14.128906 22.578125 -14.828125 C 23.816406 -15.523438 25.132812 -15.875 26.53125 -15.875 C 28.269531 -15.875 29.546875 -15.332031 30.359375 -14.25 C 31.171875 -13.175781 31.425781 -11.710938 31.125 -9.859375 L 29.5625 0 L 23.0625 0 L 24.4375 -8.625 C 24.582031 -9.445312 24.484375 -10.078125 24.140625 -10.515625 C 23.804688 -10.953125 23.28125 -11.171875 22.5625 -11.171875 C 21.695312 -11.171875 20.960938 -10.882812 20.359375 -10.3125 C 19.765625 -9.75 19.390625 -8.96875 19.234375 -7.96875 L 17.96875 0 L 11.5 0 L 12.84375 -8.625 C 12.988281 -9.445312 12.890625 -10.078125 12.546875 -10.515625 C 12.210938 -10.953125 11.6875 -11.171875 10.96875 -11.171875 C 10.101562 -11.171875 9.375 -10.882812 8.78125 -10.3125 C 8.195312 -9.75 7.828125 -8.96875 7.671875 -7.96875 L 6.375 0 Z M -0.09375 0 "/></g></g><g style="fill:#111111;fill-opacity:1;"><g transform="translate(80.24056, 156.819817)"><path style="stroke:none" d="M -1.078125 6.296875 L 2.34375 -15.484375 L 7.84375 -15.484375 L 8.234375 -11.890625 L 8.265625 -11.890625 C 8.960938 -13.148438 9.925781 -14.128906 11.15625 -14.828125 C 12.382812 -15.523438 13.726562 -15.875 15.1875 -15.875 C 17.082031 -15.875 18.5625 -15.3125 19.625 -14.1875 C 20.695312 -13.070312 21.234375 -11.535156 21.234375 -9.578125 C 21.234375 -8.242188 21.03125 -6.976562 20.625 -5.78125 C 20.21875 -4.582031 19.632812 -3.519531 18.875 -2.59375 C 18.113281 -1.664062 17.207031 -0.9375 16.15625 -0.40625 C 15.113281 0.125 13.941406 0.390625 12.640625 0.390625 C 11.179688 0.390625 9.953125 0.0390625 8.953125 -0.65625 C 7.953125 -1.351562 7.304688 -2.332031 7.015625 -3.59375 L 6.984375 -3.59375 L 5.390625 6.296875 Z M 10.421875 -4.40625 C 11.242188 -4.40625 11.972656 -4.582031 12.609375 -4.9375 C 13.242188 -5.300781 13.738281 -5.785156 14.09375 -6.390625 C 14.457031 -7.003906 14.640625 -7.671875 14.640625 -8.390625 C 14.640625 -9.203125 14.359375 -9.847656 13.796875 -10.328125 C 13.242188 -10.804688 12.488281 -11.046875 11.53125 -11.046875 C 10.726562 -11.046875 10.007812 -10.863281 9.375 -10.5 C 8.738281 -10.144531 8.234375 -9.671875 7.859375 -9.078125 C 7.492188 -8.492188 7.3125 -7.832031 7.3125 -7.09375 C 7.3125 -6.300781 7.585938 -5.65625 8.140625 -5.15625 C 8.703125 -4.65625 9.460938 -4.40625 10.421875 -4.40625 Z M 10.421875 -4.40625 "/></g></g><g style="fill:#111111;fill-opacity:1;"><g transform="translate(101.92841, 156.819817)"><path style="stroke:none" d="M -0.09375 0 L 3.4375 -22.375 L 9.9375 -22.375 L 6.375 0 Z M -0.09375 0 "/></g></g><g style="fill:#111111;fill-opacity:1;"><g transform="translate(110.675445, 156.819817)"><path style="stroke:none" d="M 10.640625 0.546875 C 8.578125 0.546875 6.785156 0.257812 5.265625 -0.3125 C 3.753906 -0.882812 2.582031 -1.695312 1.75 -2.75 C 0.925781 -3.8125 0.515625 -5.050781 0.515625 -6.46875 C 0.515625 -7.863281 0.804688 -9.144531 1.390625 -10.3125 C 1.984375 -11.488281 2.789062 -12.5 3.8125 -13.34375 C 4.84375 -14.1875 6.023438 -14.835938 7.359375 -15.296875 C 8.703125 -15.765625 10.125 -16 11.625 -16 C 14.300781 -16 16.40625 -15.40625 17.9375 -14.21875 C 19.476562 -13.03125 20.25 -11.414062 20.25 -9.375 C 20.25 -8.875 20.179688 -8.3125 20.046875 -7.6875 C 19.921875 -7.070312 19.757812 -6.566406 19.5625 -6.171875 L 7.0625 -6.171875 C 7.164062 -5.273438 7.613281 -4.601562 8.40625 -4.15625 C 9.207031 -3.71875 10.191406 -3.5 11.359375 -3.5 C 12.453125 -3.5 13.523438 -3.648438 14.578125 -3.953125 C 15.640625 -4.253906 16.5 -4.65625 17.15625 -5.15625 L 19.171875 -2.125 C 18.234375 -1.320312 17 -0.675781 15.46875 -0.1875 C 13.9375 0.300781 12.328125 0.546875 10.640625 0.546875 Z M 7.453125 -9.109375 L 13.8125 -9.109375 C 13.863281 -10.085938 13.660156 -10.835938 13.203125 -11.359375 C 12.742188 -11.890625 12.097656 -12.15625 11.265625 -12.15625 C 10.347656 -12.15625 9.539062 -11.875 8.84375 -11.3125 C 8.15625 -10.757812 7.691406 -10.023438 7.453125 -9.109375 Z M 7.453125 -9.109375 "/></g></g><g style="fill:#111111;fill-opacity:1;"><g transform="translate(131.524542, 156.819817)"><path style="stroke:none" d=""/></g></g><g style="fill:#111111;fill-opacity:1;"><g transform="translate(137.485704, 156.819817)"><path style="stroke:none" d="M 0.328125 0 L 3.75 -21.46875 L 17.40625 -21.46875 C 19.71875 -21.46875 21.53125 -20.988281 22.84375 -20.03125 C 24.164062 -19.070312 24.828125 -17.773438 24.828125 -16.140625 C 24.828125 -14.984375 24.4375 -13.921875 23.65625 -12.953125 C 22.882812 -11.984375 21.867188 -11.320312 20.609375 -10.96875 L 20.609375 -10.90625 C 21.609375 -10.582031 22.390625 -10.050781 22.953125 -9.3125 C 23.523438 -8.570312 23.8125 -7.675781 23.8125 -6.625 C 23.8125 -5.320312 23.425781 -4.171875 22.65625 -3.171875 C 21.882812 -2.171875 20.828125 -1.390625 19.484375 -0.828125 C 18.140625 -0.273438 16.578125 0 14.796875 0 Z M 9.578125 -12.765625 L 14.46875 -12.765625 C 15.363281 -12.765625 16.09375 -13.003906 16.65625 -13.484375 C 17.21875 -13.960938 17.5 -14.539062 17.5 -15.21875 C 17.5 -15.78125 17.296875 -16.210938 16.890625 -16.515625 C 16.492188 -16.828125 15.914062 -16.984375 15.15625 -16.984375 L 10.25 -16.984375 Z M 8.265625 -4.46875 L 13.453125 -4.46875 C 14.453125 -4.46875 15.238281 -4.707031 15.8125 -5.1875 C 16.394531 -5.664062 16.6875 -6.273438 16.6875 -7.015625 C 16.6875 -7.609375 16.460938 -8.078125 16.015625 -8.421875 C 15.566406 -8.773438 14.953125 -8.953125 14.171875 -8.953125 L 8.984375 -8.953125 Z M 8.265625 -4.46875 "/></g></g><g style="fill:#111111;fill-opacity:1;"><g transform="translate(162.229018, 156.819817)"><path style="stroke:none" d="M 9.5625 0.546875 C 7.675781 0.546875 6.054688 0.265625 4.703125 -0.296875 C 3.347656 -0.859375 2.304688 -1.648438 1.578125 -2.671875 C 0.847656 -3.703125 0.484375 -4.914062 0.484375 -6.3125 C 0.484375 -7.769531 0.78125 -9.09375 1.375 -10.28125 C 1.976562 -11.476562 2.804688 -12.5 3.859375 -13.34375 C 4.921875 -14.1875 6.132812 -14.835938 7.5 -15.296875 C 8.875 -15.765625 10.335938 -16 11.890625 -16 C 14.722656 -16 16.9375 -15.378906 18.53125 -14.140625 C 20.132812 -12.898438 20.9375 -11.234375 20.9375 -9.140625 C 20.9375 -7.679688 20.632812 -6.359375 20.03125 -5.171875 C 19.4375 -3.984375 18.613281 -2.960938 17.5625 -2.109375 C 16.519531 -1.265625 15.3125 -0.609375 13.9375 -0.140625 C 12.570312 0.316406 11.113281 0.546875 9.5625 0.546875 Z M 10.21875 -3.921875 C 11.09375 -3.921875 11.847656 -4.132812 12.484375 -4.5625 C 13.128906 -5 13.625 -5.570312 13.96875 -6.28125 C 14.320312 -6.988281 14.5 -7.75 14.5 -8.5625 C 14.5 -9.5 14.203125 -10.226562 13.609375 -10.75 C 13.023438 -11.269531 12.234375 -11.53125 11.234375 -11.53125 C 10.335938 -11.53125 9.566406 -11.316406 8.921875 -10.890625 C 8.285156 -10.460938 7.800781 -9.894531 7.46875 -9.1875 C 7.144531 -8.488281 6.984375 -7.742188 6.984375 -6.953125 C 6.984375 -5.992188 7.269531 -5.25 7.84375 -4.71875 C 8.425781 -4.1875 9.21875 -3.921875 10.21875 -3.921875 Z M 10.21875 -3.921875 "/></g></g><g style="fill:#111111;fill-opacity:1;"><g transform="translate(183.677219, 156.819817)"><path style="stroke:none" d="M 9.5625 0.546875 C 7.675781 0.546875 6.054688 0.265625 4.703125 -0.296875 C 3.347656 -0.859375 2.304688 -1.648438 1.578125 -2.671875 C 0.847656 -3.703125 0.484375 -4.914062 0.484375 -6.3125 C 0.484375 -7.769531 0.78125 -9.09375 1.375 -10.28125 C 1.976562 -11.476562 2.804688 -12.5 3.859375 -13.34375 C 4.921875 -14.1875 6.132812 -14.835938 7.5 -15.296875 C 8.875 -15.765625 10.335938 -16 11.890625 -16 C 14.722656 -16 16.9375 -15.378906 18.53125 -14.140625 C 20.132812 -12.898438 20.9375 -11.234375 20.9375 -9.140625 C 20.9375 -7.679688 20.632812 -6.359375 20.03125 -5.171875 C 19.4375 -3.984375 18.613281 -2.960938 17.5625 -2.109375 C 16.519531 -1.265625 15.3125 -0.609375 13.9375 -0.140625 C 12.570312 0.316406 11.113281 0.546875 9.5625 0.546875 Z M 10.21875 -3.921875 C 11.09375 -3.921875 11.847656 -4.132812 12.484375 -4.5625 C 13.128906 -5 13.625 -5.570312 13.96875 -6.28125 C 14.320312 -6.988281 14.5 -7.75 14.5 -8.5625 C 14.5 -9.5 14.203125 -10.226562 13.609375 -10.75 C 13.023438 -11.269531 12.234375 -11.53125 11.234375 -11.53125 C 10.335938 -11.53125 9.566406 -11.316406 8.921875 -10.890625 C 8.285156 -10.460938 7.800781 -9.894531 7.46875 -9.1875 C 7.144531 -8.488281 6.984375 -7.742188 6.984375 -6.953125 C 6.984375 -5.992188 7.269531 -5.25 7.84375 -4.71875 C 8.425781 -4.1875 9.21875 -3.921875 10.21875 -3.921875 Z M 10.21875 -3.921875 "/></g></g><g style="fill:#111111;fill-opacity:1;"><g transform="translate(205.125419, 156.819817)"><path style="stroke:none" d="M -0.09375 0 L 3.4375 -22.375 L 9.9375 -22.375 L 8.125 -10.9375 L 8.140625 -10.9375 L 13.484375 -15.484375 L 21.03125 -15.484375 L 13.84375 -9.703125 L 18.6875 0 L 11.5625 0 L 8.953125 -6.234375 L 7.15625 -4.765625 L 6.375 0 Z M -0.09375 0 "/></g></g><g style="fill:#111111;fill-opacity:1;"><g transform="translate(225.045899, 156.819817)"><path style="stroke:none" d=""/></g></g><g style="fill:#111111;fill-opacity:1;"><g transform="translate(231.007038, 156.819817)"><path style="stroke:none" d="M 0.328125 0 L 3.75 -21.46875 L 10.96875 -21.46875 L 8.484375 -5.6875 L 18.1875 -5.6875 L 17.28125 0 Z M 0.328125 0 "/></g></g><g style="fill:#111111;fill-opacity:1;"><g transform="translate(250.058814, 156.819817)"><path style="stroke:none" d="M 5.9375 -17.046875 C 4.976562 -17.046875 4.210938 -17.300781 3.640625 -17.8125 C 3.066406 -18.320312 2.78125 -18.984375 2.78125 -19.796875 C 2.78125 -20.554688 2.960938 -21.222656 3.328125 -21.796875 C 3.703125 -22.378906 4.203125 -22.832031 4.828125 -23.15625 C 5.460938 -23.488281 6.160156 -23.65625 6.921875 -23.65625 C 7.878906 -23.65625 8.640625 -23.40625 9.203125 -22.90625 C 9.773438 -22.414062 10.0625 -21.75 10.0625 -20.90625 C 10.0625 -20.1875 9.875 -19.53125 9.5 -18.9375 C 9.132812 -18.351562 8.640625 -17.890625 8.015625 -17.546875 C 7.398438 -17.210938 6.707031 -17.046875 5.9375 -17.046875 Z M -0.0625 0 L 2.390625 -15.484375 L 8.859375 -15.484375 L 6.4375 0 Z M -0.0625 0 "/></g></g><g style="fill:#111111;fill-opacity:1;"><g transform="translate(258.895712, 156.819817)"><path style="stroke:none" d="M 12.640625 0.390625 C 11.160156 0.390625 9.921875 0.0390625 8.921875 -0.65625 C 7.921875 -1.351562 7.273438 -2.34375 6.984375 -3.625 L 6.953125 -3.625 L 5.390625 0 L -0.09375 0 L 3.4375 -22.375 L 9.9375 -22.375 L 8.234375 -11.859375 L 8.265625 -11.859375 C 8.960938 -13.140625 9.925781 -14.128906 11.15625 -14.828125 C 12.382812 -15.523438 13.726562 -15.875 15.1875 -15.875 C 17.082031 -15.875 18.5625 -15.3125 19.625 -14.1875 C 20.695312 -13.070312 21.234375 -11.535156 21.234375 -9.578125 C 21.234375 -8.242188 21.03125 -6.976562 20.625 -5.78125 C 20.21875 -4.582031 19.632812 -3.519531 18.875 -2.59375 C 18.113281 -1.664062 17.207031 -0.9375 16.15625 -0.40625 C 15.113281 0.125 13.941406 0.390625 12.640625 0.390625 Z M 10.421875 -4.40625 C 11.242188 -4.40625 11.972656 -4.582031 12.609375 -4.9375 C 13.242188 -5.300781 13.738281 -5.785156 14.09375 -6.390625 C 14.457031 -7.003906 14.640625 -7.671875 14.640625 -8.390625 C 14.640625 -9.203125 14.359375 -9.847656 13.796875 -10.328125 C 13.242188 -10.804688 12.488281 -11.046875 11.53125 -11.046875 C 10.726562 -11.046875 10.007812 -10.863281 9.375 -10.5 C 8.738281 -10.144531 8.234375 -9.671875 7.859375 -9.078125 C 7.492188 -8.492188 7.3125 -7.832031 7.3125 -7.09375 C 7.3125 -6.300781 7.585938 -5.65625 8.140625 -5.15625 C 8.703125 -4.65625 9.460938 -4.40625 10.421875 -4.40625 Z M 10.421875 -4.40625 "/></g></g><g style="fill:#111111;fill-opacity:1;"><g transform="translate(280.583551, 156.819817)"><path style="stroke:none" d="M 13.71875 -15.875 C 15.257812 -15.875 16.398438 -15.332031 17.140625 -14.25 C 17.890625 -13.175781 18.175781 -11.628906 18 -9.609375 L 12.078125 -8.390625 C 12.210938 -9.441406 12.132812 -10.253906 11.84375 -10.828125 C 11.550781 -11.398438 11.085938 -11.6875 10.453125 -11.6875 C 9.753906 -11.6875 9.15625 -11.347656 8.65625 -10.671875 C 8.15625 -10.003906 7.816406 -9.070312 7.640625 -7.875 L 6.375 0 L -0.09375 0 L 2.34375 -15.484375 L 7.609375 -15.484375 L 8.09375 -12.484375 L 8.125 -12.484375 C 8.757812 -13.566406 9.566406 -14.398438 10.546875 -14.984375 C 11.523438 -15.578125 12.582031 -15.875 13.71875 -15.875 Z M 13.71875 -15.875 "/></g></g><g style="fill:#111111;fill-opacity:1;"><g transform="translate(298.526938, 156.819817)"><path style="stroke:none" d="M 6.734375 0.390625 C 4.773438 0.390625 3.238281 -0.175781 2.125 -1.3125 C 1.007812 -2.457031 0.453125 -4 0.453125 -5.9375 C 0.453125 -7.269531 0.664062 -8.535156 1.09375 -9.734375 C 1.519531 -10.929688 2.125 -11.988281 2.90625 -12.90625 C 3.6875 -13.820312 4.613281 -14.546875 5.6875 -15.078125 C 6.769531 -15.609375 7.96875 -15.875 9.28125 -15.875 C 10.664062 -15.875 11.835938 -15.523438 12.796875 -14.828125 C 13.753906 -14.128906 14.390625 -13.140625 14.703125 -11.859375 L 14.734375 -11.859375 L 16.265625 -15.484375 L 21.78125 -15.484375 L 19.34375 0 L 13.84375 0 L 13.453125 -3.5625 L 13.421875 -3.5625 C 12.722656 -2.300781 11.78125 -1.328125 10.59375 -0.640625 C 9.40625 0.046875 8.117188 0.390625 6.734375 0.390625 Z M 10.15625 -4.40625 C 10.96875 -4.40625 11.6875 -4.582031 12.3125 -4.9375 C 12.945312 -5.300781 13.445312 -5.785156 13.8125 -6.390625 C 14.1875 -7.003906 14.375 -7.671875 14.375 -8.390625 C 14.375 -9.179688 14.09375 -9.820312 13.53125 -10.3125 C 12.976562 -10.800781 12.222656 -11.046875 11.265625 -11.046875 C 10.460938 -11.046875 9.738281 -10.863281 9.09375 -10.5 C 8.457031 -10.144531 7.953125 -9.671875 7.578125 -9.078125 C 7.210938 -8.492188 7.03125 -7.832031 7.03125 -7.09375 C 7.03125 -6.300781 7.3125 -5.65625 7.875 -5.15625 C 8.4375 -4.65625 9.195312 -4.40625 10.15625 -4.40625 Z M 10.15625 -4.40625 "/></g></g><g style="fill:#111111;fill-opacity:1;"><g transform="translate(320.2148, 156.819817)"><path style="stroke:none" d="M 13.71875 -15.875 C 15.257812 -15.875 16.398438 -15.332031 17.140625 -14.25 C 17.890625 -13.175781 18.175781 -11.628906 18 -9.609375 L 12.078125 -8.390625 C 12.210938 -9.441406 12.132812 -10.253906 11.84375 -10.828125 C 11.550781 -11.398438 11.085938 -11.6875 10.453125 -11.6875 C 9.753906 -11.6875 9.15625 -11.347656 8.65625 -10.671875 C 8.15625 -10.003906 7.816406 -9.070312 7.640625 -7.875 L 6.375 0 L -0.09375 0 L 2.34375 -15.484375 L 7.609375 -15.484375 L 8.09375 -12.484375 L 8.125 -12.484375 C 8.757812 -13.566406 9.566406 -14.398438 10.546875 -14.984375 C 11.523438 -15.578125 12.582031 -15.875 13.71875 -15.875 Z M 13.71875 -15.875 "/></g></g><g style="fill:#111111;fill-opacity:1;"><g transform="translate(338.218111, 156.819817)"><path style="stroke:none" d="M 5.875 6.828125 C 4.238281 6.828125 2.65625 6.601562 1.125 6.15625 C -0.40625 5.707031 -1.628906 5.125 -2.546875 4.40625 L -0.03125 -0.125 C 0.75 0.476562 1.691406 0.96875 2.796875 1.34375 C 3.910156 1.726562 4.992188 1.921875 6.046875 1.921875 C 7.722656 1.921875 9.128906 1.523438 10.265625 0.734375 C 11.410156 -0.0546875 12.082031 -1.097656 12.28125 -2.390625 L 12.484375 -3.6875 L 12.453125 -3.6875 C 11.859375 -2.53125 10.988281 -1.613281 9.84375 -0.9375 C 8.695312 -0.269531 7.441406 0.0625 6.078125 0.0625 C 4.160156 0.0625 2.726562 -0.519531 1.78125 -1.6875 C 0.832031 -2.851562 0.519531 -4.390625 0.84375 -6.296875 L 2.3125 -15.484375 L 8.8125 -15.484375 L 7.515625 -7.3125 C 7.378906 -6.394531 7.492188 -5.664062 7.859375 -5.125 C 8.234375 -4.582031 8.800781 -4.3125 9.5625 -4.3125 C 10.476562 -4.3125 11.257812 -4.609375 11.90625 -5.203125 C 12.550781 -5.804688 12.957031 -6.597656 13.125 -7.578125 L 14.34375 -15.484375 L 20.84375 -15.484375 L 18.71875 -2.0625 C 18.4375 -0.269531 17.71875 1.285156 16.5625 2.609375 C 15.40625 3.941406 13.90625 4.976562 12.0625 5.71875 C 10.226562 6.457031 8.164062 6.828125 5.875 6.828125 Z M 5.875 6.828125 "/></g></g><g style="fill:#111111;fill-opacity:1;"><g transform="translate(358.984216, 156.819817)"><path style="stroke:none" d=""/></g></g><g clip-rule="nonzero" clip-path="url(#7d9eb6158d)"><path style=" stroke:none;fill-rule:nonzero;fill:#efcb67;fill-opacity:1;" d="M 60.390625 59.773438 L 0.617188 59.773438 C 0.617188 26.761719 27.378906 0 60.390625 0 Z M 60.390625 59.773438 L 60.390625 119.550781 C 93.40625 119.550781 120.167969 92.789062 120.167969 59.773438 Z M 18.613281 73.664062 C 11.050781 81.226562 11.050781 93.488281 18.613281 101.050781 C 26.175781 108.613281 38.4375 108.613281 46.003906 101.050781 C 53.566406 93.488281 53.566406 81.226562 46.003906 73.664062 C 38.4375 66.097656 26.175781 66.097656 18.613281 73.664062 Z M 102.632812 43.582031 C 110.195312 36.019531 110.195312 23.757812 102.632812 16.191406 C 95.070312 8.628906 82.808594 8.628906 75.246094 16.191406 C 67.679688 23.757812 67.679688 36.019531 75.246094 43.582031 C 82.808594 51.144531 95.070312 51.144531 102.632812 43.582031 Z M 102.632812 43.582031 "/></g></g></svg>