<svg xmlns="http://www.w3.org/2000/svg" xmlns:xlink="http://www.w3.org/1999/xlink" width="500" zoomAndPan="magnify" viewBox="0 0 375 374.999991" height="500" preserveAspectRatio="xMidYMid meet" version="1.2"><defs><clipPath id="3def62682e"><path d="M 187.5 0 C 83.945312 0 0 83.945312 0 187.5 C 0 291.054688 83.945312 375 187.5 375 C 291.054688 375 375 291.054688 375 187.5 C 375 83.945312 291.054688 0 187.5 0 Z M 187.5 0 "/></clipPath></defs><g id="d9446334f7"><g clip-rule="nonzero" clip-path="url(#3def62682e)"><rect x="0" width="375" y="0" height="374.999991" style="fill:#efcb67;fill-opacity:1;stroke:none;"/></g><path style=" stroke:none;fill-rule:nonzero;fill:#00040f;fill-opacity:1;" d="M 187.476562 187.476562 L 0 187.476562 C 0 83.9375 83.9375 0 187.476562 0 Z M 187.476562 187.476562 L 187.476562 374.953125 C 291.015625 374.953125 374.953125 291.015625 374.953125 187.476562 Z M 56.445312 231.035156 C 32.722656 254.753906 32.722656 293.214844 56.445312 316.933594 C 80.164062 340.65625 118.625 340.65625 142.34375 316.933594 C 166.066406 293.214844 166.066406 254.753906 142.34375 231.035156 C 118.625 207.3125 80.164062 207.3125 56.445312 231.035156 Z M 319.960938 136.6875 C 343.679688 112.96875 343.679688 74.507812 319.960938 50.789062 C 296.238281 27.066406 257.777344 27.066406 234.058594 50.789062 C 210.335938 74.507812 210.335938 112.96875 234.058594 136.6875 C 257.777344 160.410156 296.238281 160.410156 319.960938 136.6875 Z M 319.960938 136.6875 "/></g></svg>