<svg xmlns="http://www.w3.org/2000/svg" xmlns:xlink="http://www.w3.org/1999/xlink" width="300" zoomAndPan="magnify"
     viewBox="0 0 375 374.999991" height="300" preserveAspectRatio="xMidYMid meet" version="1.2">
    <defs>
        <clipPath id="9e14c4ae68">
            <path d="M 0.339844 103.722656 L 120.339844 103.722656 L 120.339844 223.722656 L 0.339844 223.722656 Z M 0.339844 103.722656 "/>
        </clipPath>
    </defs>
    <g id="33301999ea">
        <g style="fill:#00040f;fill-opacity:1;">
            <g transform="translate(130.894897, 199.901149)">
                <path style="stroke:none"
                      d="M 41.40625 2.296875 C 35.53125 2.296875 29.957031 1.613281 24.6875 0.25 C 19.425781 -1.113281 14.828125 -3.128906 10.890625 -5.796875 C 6.960938 -8.460938 4.066406 -11.726562 2.203125 -15.59375 L 16.296875 -25.296875 C 17.898438 -23.035156 20.082031 -21.035156 22.84375 -19.296875 C 25.613281 -17.566406 28.710938 -16.21875 32.140625 -15.25 C 35.578125 -14.28125 39.097656 -13.796875 42.703125 -13.796875 C 47.035156 -13.796875 50.46875 -14.394531 53 -15.59375 C 55.53125 -16.800781 56.796875 -18.40625 56.796875 -20.40625 C 56.796875 -22.070312 55.78125 -23.421875 53.75 -24.453125 C 51.71875 -25.484375 48.4375 -26.300781 43.90625 -26.90625 L 32.703125 -28.40625 C 22.628906 -29.738281 15.3125 -32.117188 10.75 -35.546875 C 6.1875 -38.984375 3.90625 -43.800781 3.90625 -50 C 3.96875 -55.0625 5.582031 -59.375 8.75 -62.9375 C 11.914062 -66.507812 16.28125 -69.242188 21.84375 -71.140625 C 27.414062 -73.046875 33.800781 -74 41 -74 C 46.132812 -74 50.953125 -73.378906 55.453125 -72.140625 C 59.953125 -70.910156 63.898438 -69.175781 67.296875 -66.9375 C 70.703125 -64.707031 73.269531 -62.0625 75 -59 L 61.796875 -49.296875 C 59.660156 -52.097656 56.691406 -54.296875 52.890625 -55.890625 C 49.097656 -57.492188 45.101562 -58.296875 40.90625 -58.296875 C 36.90625 -58.234375 33.65625 -57.617188 31.15625 -56.453125 C 28.65625 -55.285156 27.40625 -53.734375 27.40625 -51.796875 C 27.40625 -50.328125 28.300781 -49.125 30.09375 -48.1875 C 31.894531 -47.257812 34.796875 -46.53125 38.796875 -46 L 50.09375 -44.59375 C 60.5625 -43.332031 68.175781 -40.953125 72.9375 -37.453125 C 77.707031 -33.953125 80.09375 -29 80.09375 -22.59375 C 80.09375 -17.46875 78.476562 -13.035156 75.25 -9.296875 C 72.019531 -5.566406 67.503906 -2.703125 61.703125 -0.703125 C 55.898438 1.296875 49.132812 2.296875 41.40625 2.296875 Z M 41.40625 2.296875 "/>
            </g>
        </g>
        <g style="fill:#00040f;fill-opacity:1;">
            <g transform="translate(212.591745, 199.901149)">
                <path style="stroke:none"
                      d="M 5.09375 0 L 5.09375 -71.59375 L 54.703125 -71.59375 C 63.296875 -71.59375 69.941406 -69.894531 74.640625 -66.5 C 79.347656 -63.101562 81.703125 -58.269531 81.703125 -52 C 81.703125 -48.195312 80.648438 -44.960938 78.546875 -42.296875 C 76.453125 -39.628906 73.4375 -37.726562 69.5 -36.59375 L 69.5 -36.40625 C 73.894531 -35.40625 77.289062 -33.453125 79.6875 -30.546875 C 82.09375 -27.648438 83.296875 -24.035156 83.296875 -19.703125 C 83.296875 -13.429688 80.960938 -8.578125 76.296875 -5.140625 C 71.628906 -1.710938 65 0 56.40625 0 Z M 29.203125 -42.703125 L 48.59375 -42.703125 C 51.46875 -42.703125 53.6875 -43.316406 55.25 -44.546875 C 56.8125 -45.785156 57.59375 -47.535156 57.59375 -49.796875 C 57.59375 -51.992188 56.8125 -53.691406 55.25 -54.890625 C 53.6875 -56.097656 51.46875 -56.703125 48.59375 -56.703125 L 29.203125 -56.703125 Z M 29.203125 -14.90625 L 49.59375 -14.90625 C 52.664062 -14.90625 55.035156 -15.550781 56.703125 -16.84375 C 58.367188 -18.144531 59.203125 -19.929688 59.203125 -22.203125 C 59.203125 -24.671875 58.367188 -26.570312 56.703125 -27.90625 C 55.035156 -29.238281 52.664062 -29.90625 49.59375 -29.90625 L 29.203125 -29.90625 Z M 29.203125 -14.90625 "/>
            </g>
        </g>
        <g style="fill:#00040f;fill-opacity:1;">
            <g transform="translate(298.288441, 199.901149)">
                <path style="stroke:none"
                      d="M 5.09375 0 L 5.09375 -71.59375 L 29.203125 -71.59375 L 29.203125 -18.90625 L 64.09375 -18.90625 L 64.09375 0 Z M 5.09375 0 "/>
            </g>
        </g>
        <g style="fill:#00040f;fill-opacity:1;">
            <g transform="translate(15.761722, 260.776036)">
                <path style="stroke:none"
                      d="M 11.21875 0.6875 C 9.363281 0.6875 7.6875 0.457031 6.1875 0 C 4.6875 -0.457031 3.421875 -1.101562 2.390625 -1.9375 C 1.359375 -2.769531 0.625 -3.734375 0.1875 -4.828125 L 4.984375 -7.5625 C 5.503906 -6.519531 6.382812 -5.6875 7.625 -5.0625 C 8.863281 -4.445312 10.269531 -4.140625 11.84375 -4.140625 C 13.082031 -4.140625 14.066406 -4.304688 14.796875 -4.640625 C 15.535156 -4.984375 15.90625 -5.476562 15.90625 -6.125 C 15.90625 -6.582031 15.632812 -6.972656 15.09375 -7.296875 C 14.550781 -7.628906 13.78125 -7.894531 12.78125 -8.09375 L 9.8125 -8.546875 C 7.1875 -8.953125 5.269531 -9.625 4.0625 -10.5625 C 2.851562 -11.5 2.25 -12.796875 2.25 -14.453125 C 2.25 -15.753906 2.53125 -16.890625 3.09375 -17.859375 C 3.664062 -18.828125 4.457031 -19.628906 5.46875 -20.265625 C 6.476562 -20.910156 7.648438 -21.390625 8.984375 -21.703125 C 10.316406 -22.015625 11.734375 -22.171875 13.234375 -22.171875 C 15.847656 -22.171875 18.007812 -21.722656 19.71875 -20.828125 C 21.4375 -19.941406 22.59375 -18.78125 23.1875 -17.34375 L 18.6875 -14.734375 C 18.25 -15.585938 17.546875 -16.253906 16.578125 -16.734375 C 15.609375 -17.210938 14.492188 -17.453125 13.234375 -17.453125 C 12.109375 -17.453125 11.1875 -17.285156 10.46875 -16.953125 C 9.75 -16.628906 9.390625 -16.1875 9.390625 -15.625 C 9.390625 -15.1875 9.65625 -14.820312 10.1875 -14.53125 C 10.71875 -14.238281 11.460938 -14.003906 12.421875 -13.828125 L 15.203125 -13.375 C 17.929688 -12.9375 19.914062 -12.21875 21.15625 -11.21875 C 22.394531 -10.21875 23.015625 -8.828125 23.015625 -7.046875 C 23.015625 -5.785156 22.703125 -4.671875 22.078125 -3.703125 C 21.460938 -2.734375 20.609375 -1.921875 19.515625 -1.265625 C 18.421875 -0.617188 17.164062 -0.132812 15.75 0.1875 C 14.332031 0.519531 12.820312 0.6875 11.21875 0.6875 Z M 11.21875 0.6875 "/>
            </g>
        </g>
        <g style="fill:#00040f;fill-opacity:1;">
            <g transform="translate(39.401701, 260.776036)">
                <path style="stroke:none"
                      d="M 5.9375 -17.0625 C 4.976562 -17.0625 4.210938 -17.316406 3.640625 -17.828125 C 3.078125 -18.335938 2.796875 -19.003906 2.796875 -19.828125 C 2.796875 -20.585938 2.976562 -21.253906 3.34375 -21.828125 C 3.71875 -22.410156 4.21875 -22.867188 4.84375 -23.203125 C 5.476562 -23.535156 6.175781 -23.703125 6.9375 -23.703125 C 7.894531 -23.703125 8.65625 -23.453125 9.21875 -22.953125 C 9.789062 -22.453125 10.078125 -21.78125 10.078125 -20.9375 C 10.078125 -20.21875 9.890625 -19.5625 9.515625 -18.96875 C 9.148438 -18.382812 8.65625 -17.921875 8.03125 -17.578125 C 7.414062 -17.234375 6.71875 -17.0625 5.9375 -17.0625 Z M -0.0625 0 L 2.40625 -15.515625 L 8.875 -15.515625 L 6.453125 0 Z M -0.0625 0 "/>
            </g>
        </g>
        <g style="fill:#00040f;fill-opacity:1;">
            <g transform="translate(48.251691, 260.776036)">
                <path style="stroke:none"
                      d="M -0.09375 0 L 2.34375 -15.515625 L 7.625 -15.515625 L 8.046875 -11.96875 L 8.0625 -11.96875 C 8.769531 -13.1875 9.726562 -14.144531 10.9375 -14.84375 C 12.144531 -15.550781 13.445312 -15.90625 14.84375 -15.90625 C 16.289062 -15.90625 17.40625 -15.550781 18.1875 -14.84375 C 18.976562 -14.144531 19.445312 -13.164062 19.59375 -11.90625 L 19.625 -11.90625 C 20.382812 -13.164062 21.382812 -14.144531 22.625 -14.84375 C 23.863281 -15.550781 25.179688 -15.90625 26.578125 -15.90625 C 28.316406 -15.90625 29.59375 -15.363281 30.40625 -14.28125 C 31.21875 -13.195312 31.472656 -11.726562 31.171875 -9.875 L 29.609375 0 L 23.09375 0 L 24.484375 -8.640625 C 24.617188 -9.460938 24.515625 -10.09375 24.171875 -10.53125 C 23.835938 -10.96875 23.3125 -11.1875 22.59375 -11.1875 C 21.726562 -11.1875 20.992188 -10.898438 20.390625 -10.328125 C 19.796875 -9.765625 19.421875 -8.984375 19.265625 -7.984375 L 18 0 L 11.515625 0 L 12.875 -8.640625 C 13.007812 -9.460938 12.90625 -10.09375 12.5625 -10.53125 C 12.226562 -10.96875 11.703125 -11.1875 10.984375 -11.1875 C 10.117188 -11.1875 9.390625 -10.898438 8.796875 -10.328125 C 8.210938 -9.765625 7.84375 -8.984375 7.6875 -7.984375 L 6.390625 0 Z M -0.09375 0 "/>
            </g>
        </g>
        <g style="fill:#00040f;fill-opacity:1;">
            <g transform="translate(80.081657, 260.776036)">
                <path style="stroke:none"
                      d="M -1.078125 6.296875 L 2.34375 -15.515625 L 7.859375 -15.515625 L 8.25 -11.90625 L 8.28125 -11.90625 C 8.976562 -13.164062 9.941406 -14.144531 11.171875 -14.84375 C 12.398438 -15.550781 13.742188 -15.90625 15.203125 -15.90625 C 17.109375 -15.90625 18.59375 -15.34375 19.65625 -14.21875 C 20.726562 -13.101562 21.265625 -11.5625 21.265625 -9.59375 C 21.265625 -8.257812 21.0625 -6.988281 20.65625 -5.78125 C 20.25 -4.582031 19.664062 -3.519531 18.90625 -2.59375 C 18.144531 -1.664062 17.238281 -0.9375 16.1875 -0.40625 C 15.132812 0.125 13.957031 0.390625 12.65625 0.390625 C 11.195312 0.390625 9.96875 0.0390625 8.96875 -0.65625 C 7.96875 -1.351562 7.316406 -2.332031 7.015625 -3.59375 L 6.984375 -3.59375 L 5.40625 6.296875 Z M 10.4375 -4.40625 C 11.257812 -4.40625 11.988281 -4.582031 12.625 -4.9375 C 13.269531 -5.300781 13.769531 -5.785156 14.125 -6.390625 C 14.488281 -7.003906 14.671875 -7.675781 14.671875 -8.40625 C 14.671875 -9.21875 14.390625 -9.863281 13.828125 -10.34375 C 13.265625 -10.820312 12.503906 -11.0625 11.546875 -11.0625 C 10.742188 -11.0625 10.023438 -10.878906 9.390625 -10.515625 C 8.753906 -10.160156 8.25 -9.6875 7.875 -9.09375 C 7.5 -8.507812 7.3125 -7.847656 7.3125 -7.109375 C 7.3125 -6.304688 7.59375 -5.65625 8.15625 -5.15625 C 8.71875 -4.65625 9.476562 -4.40625 10.4375 -4.40625 Z M 10.4375 -4.40625 "/>
            </g>
        </g>
        <g style="fill:#00040f;fill-opacity:1;">
            <g transform="translate(101.801638, 260.776036)">
                <path style="stroke:none"
                      d="M -0.09375 0 L 3.453125 -22.40625 L 9.953125 -22.40625 L 6.390625 0 Z M -0.09375 0 "/>
            </g>
        </g>
        <g style="fill:#00040f;fill-opacity:1;">
            <g transform="translate(110.561632, 260.776036)">
                <path style="stroke:none"
                      d="M 10.65625 0.546875 C 8.59375 0.546875 6.800781 0.257812 5.28125 -0.3125 C 3.757812 -0.882812 2.582031 -1.695312 1.75 -2.75 C 0.925781 -3.8125 0.515625 -5.054688 0.515625 -6.484375 C 0.515625 -7.878906 0.804688 -9.160156 1.390625 -10.328125 C 1.984375 -11.503906 2.796875 -12.515625 3.828125 -13.359375 C 4.859375 -14.210938 6.039062 -14.867188 7.375 -15.328125 C 8.71875 -15.785156 10.140625 -16.015625 11.640625 -16.015625 C 14.316406 -16.015625 16.425781 -15.421875 17.96875 -14.234375 C 19.507812 -13.046875 20.28125 -11.429688 20.28125 -9.390625 C 20.28125 -8.890625 20.210938 -8.328125 20.078125 -7.703125 C 19.953125 -7.085938 19.789062 -6.582031 19.59375 -6.1875 L 7.078125 -6.1875 C 7.179688 -5.28125 7.628906 -4.609375 8.421875 -4.171875 C 9.222656 -3.734375 10.207031 -3.515625 11.375 -3.515625 C 12.46875 -3.515625 13.546875 -3.660156 14.609375 -3.953125 C 15.671875 -4.253906 16.53125 -4.65625 17.1875 -5.15625 L 19.203125 -2.125 C 18.265625 -1.332031 17.03125 -0.6875 15.5 -0.1875 C 13.96875 0.300781 12.351562 0.546875 10.65625 0.546875 Z M 7.46875 -9.125 L 13.828125 -9.125 C 13.890625 -10.101562 13.691406 -10.859375 13.234375 -11.390625 C 12.773438 -11.921875 12.125 -12.1875 11.28125 -12.1875 C 10.363281 -12.1875 9.554688 -11.90625 8.859375 -11.34375 C 8.171875 -10.78125 7.707031 -10.039062 7.46875 -9.125 Z M 7.46875 -9.125 "/>
            </g>
        </g>
        <g style="fill:#00040f;fill-opacity:1;">
            <g transform="translate(131.441616, 260.776036)">
                <path style="stroke:none" d=""/>
            </g>
        </g>
        <g style="fill:#00040f;fill-opacity:1;">
            <g transform="translate(137.411609, 260.776036)">
                <path style="stroke:none"
                      d="M 0.328125 0 L 3.75 -21.515625 L 17.4375 -21.515625 C 19.75 -21.515625 21.566406 -21.03125 22.890625 -20.0625 C 24.210938 -19.101562 24.875 -17.804688 24.875 -16.171875 C 24.875 -15.015625 24.484375 -13.945312 23.703125 -12.96875 C 22.921875 -12 21.898438 -11.335938 20.640625 -10.984375 L 20.640625 -10.921875 C 21.640625 -10.597656 22.421875 -10.066406 22.984375 -9.328125 C 23.554688 -8.585938 23.84375 -7.6875 23.84375 -6.625 C 23.84375 -5.332031 23.457031 -4.1875 22.6875 -3.1875 C 21.925781 -2.1875 20.867188 -1.40625 19.515625 -0.84375 C 18.160156 -0.28125 16.59375 0 14.8125 0 Z M 9.59375 -12.78125 L 14.484375 -12.78125 C 15.390625 -12.78125 16.117188 -13.019531 16.671875 -13.5 C 17.234375 -13.976562 17.515625 -14.554688 17.515625 -15.234375 C 17.515625 -15.796875 17.3125 -16.234375 16.90625 -16.546875 C 16.507812 -16.859375 15.9375 -17.015625 15.1875 -17.015625 L 10.265625 -17.015625 Z M 8.28125 -4.46875 L 13.46875 -4.46875 C 14.46875 -4.46875 15.253906 -4.707031 15.828125 -5.1875 C 16.410156 -5.664062 16.703125 -6.273438 16.703125 -7.015625 C 16.703125 -7.617188 16.476562 -8.09375 16.03125 -8.4375 C 15.582031 -8.789062 14.96875 -8.96875 14.1875 -8.96875 L 9 -8.96875 Z M 8.28125 -4.46875 "/>
            </g>
        </g>
        <g style="fill:#00040f;fill-opacity:1;">
            <g transform="translate(162.19158, 260.776036)">
                <path style="stroke:none"
                      d="M 9.5625 0.546875 C 7.6875 0.546875 6.066406 0.265625 4.703125 -0.296875 C 3.347656 -0.859375 2.304688 -1.65625 1.578125 -2.6875 C 0.847656 -3.71875 0.484375 -4.929688 0.484375 -6.328125 C 0.484375 -7.785156 0.78125 -9.109375 1.375 -10.296875 C 1.976562 -11.492188 2.804688 -12.515625 3.859375 -13.359375 C 4.921875 -14.210938 6.132812 -14.867188 7.5 -15.328125 C 8.875 -15.785156 10.34375 -16.015625 11.90625 -16.015625 C 14.75 -16.015625 16.96875 -15.394531 18.5625 -14.15625 C 20.164062 -12.914062 20.96875 -11.25 20.96875 -9.15625 C 20.96875 -7.6875 20.664062 -6.359375 20.0625 -5.171875 C 19.46875 -3.984375 18.644531 -2.960938 17.59375 -2.109375 C 16.539062 -1.265625 15.328125 -0.609375 13.953125 -0.140625 C 12.585938 0.316406 11.125 0.546875 9.5625 0.546875 Z M 10.234375 -3.9375 C 11.109375 -3.9375 11.863281 -4.148438 12.5 -4.578125 C 13.144531 -5.003906 13.640625 -5.570312 13.984375 -6.28125 C 14.335938 -6.988281 14.515625 -7.753906 14.515625 -8.578125 C 14.515625 -9.515625 14.21875 -10.242188 13.625 -10.765625 C 13.039062 -11.285156 12.25 -11.546875 11.25 -11.546875 C 10.351562 -11.546875 9.582031 -11.332031 8.9375 -10.90625 C 8.300781 -10.476562 7.816406 -9.910156 7.484375 -9.203125 C 7.148438 -8.503906 6.984375 -7.753906 6.984375 -6.953125 C 6.984375 -5.992188 7.273438 -5.25 7.859375 -4.71875 C 8.441406 -4.195312 9.234375 -3.9375 10.234375 -3.9375 Z M 10.234375 -3.9375 "/>
            </g>
        </g>
        <g style="fill:#00040f;fill-opacity:1;">
            <g transform="translate(183.671555, 260.776036)">
                <path style="stroke:none"
                      d="M 9.5625 0.546875 C 7.6875 0.546875 6.066406 0.265625 4.703125 -0.296875 C 3.347656 -0.859375 2.304688 -1.65625 1.578125 -2.6875 C 0.847656 -3.71875 0.484375 -4.929688 0.484375 -6.328125 C 0.484375 -7.785156 0.78125 -9.109375 1.375 -10.296875 C 1.976562 -11.492188 2.804688 -12.515625 3.859375 -13.359375 C 4.921875 -14.210938 6.132812 -14.867188 7.5 -15.328125 C 8.875 -15.785156 10.34375 -16.015625 11.90625 -16.015625 C 14.75 -16.015625 16.96875 -15.394531 18.5625 -14.15625 C 20.164062 -12.914062 20.96875 -11.25 20.96875 -9.15625 C 20.96875 -7.6875 20.664062 -6.359375 20.0625 -5.171875 C 19.46875 -3.984375 18.644531 -2.960938 17.59375 -2.109375 C 16.539062 -1.265625 15.328125 -0.609375 13.953125 -0.140625 C 12.585938 0.316406 11.125 0.546875 9.5625 0.546875 Z M 10.234375 -3.9375 C 11.109375 -3.9375 11.863281 -4.148438 12.5 -4.578125 C 13.144531 -5.003906 13.640625 -5.570312 13.984375 -6.28125 C 14.335938 -6.988281 14.515625 -7.753906 14.515625 -8.578125 C 14.515625 -9.515625 14.21875 -10.242188 13.625 -10.765625 C 13.039062 -11.285156 12.25 -11.546875 11.25 -11.546875 C 10.351562 -11.546875 9.582031 -11.332031 8.9375 -10.90625 C 8.300781 -10.476562 7.816406 -9.910156 7.484375 -9.203125 C 7.148438 -8.503906 6.984375 -7.753906 6.984375 -6.953125 C 6.984375 -5.992188 7.273438 -5.25 7.859375 -4.71875 C 8.441406 -4.195312 9.234375 -3.9375 10.234375 -3.9375 Z M 10.234375 -3.9375 "/>
            </g>
        </g>
        <g style="fill:#00040f;fill-opacity:1;">
            <g transform="translate(205.151531, 260.776036)">
                <path style="stroke:none"
                      d="M -0.09375 0 L 3.453125 -22.40625 L 9.953125 -22.40625 L 8.125 -10.953125 L 8.15625 -10.953125 L 13.5 -15.515625 L 21.0625 -15.515625 L 13.859375 -9.71875 L 18.71875 0 L 11.578125 0 L 8.96875 -6.234375 L 7.171875 -4.765625 L 6.390625 0 Z M -0.09375 0 "/>
            </g>
        </g>
        <g style="fill:#00040f;fill-opacity:1;">
            <g transform="translate(225.101522, 260.776036)">
                <path style="stroke:none" d=""/>
            </g>
        </g>
        <g style="fill:#00040f;fill-opacity:1;">
            <g transform="translate(231.071493, 260.776036)">
                <path style="stroke:none"
                      d="M 0.328125 0 L 3.75 -21.515625 L 10.984375 -21.515625 L 8.484375 -5.703125 L 18.203125 -5.703125 L 17.3125 0 Z M 0.328125 0 "/>
            </g>
        </g>
        <g style="fill:#00040f;fill-opacity:1;">
            <g transform="translate(250.151493, 260.776036)">
                <path style="stroke:none"
                      d="M 5.9375 -17.0625 C 4.976562 -17.0625 4.210938 -17.316406 3.640625 -17.828125 C 3.078125 -18.335938 2.796875 -19.003906 2.796875 -19.828125 C 2.796875 -20.585938 2.976562 -21.253906 3.34375 -21.828125 C 3.71875 -22.410156 4.21875 -22.867188 4.84375 -23.203125 C 5.476562 -23.535156 6.175781 -23.703125 6.9375 -23.703125 C 7.894531 -23.703125 8.65625 -23.453125 9.21875 -22.953125 C 9.789062 -22.453125 10.078125 -21.78125 10.078125 -20.9375 C 10.078125 -20.21875 9.890625 -19.5625 9.515625 -18.96875 C 9.148438 -18.382812 8.65625 -17.921875 8.03125 -17.578125 C 7.414062 -17.234375 6.71875 -17.0625 5.9375 -17.0625 Z M -0.0625 0 L 2.40625 -15.515625 L 8.875 -15.515625 L 6.453125 0 Z M -0.0625 0 "/>
            </g>
        </g>
        <g style="fill:#00040f;fill-opacity:1;">
            <g transform="translate(259.001483, 260.776036)">
                <path style="stroke:none"
                      d="M 12.65625 0.390625 C 11.175781 0.390625 9.9375 0.0390625 8.9375 -0.65625 C 7.9375 -1.351562 7.285156 -2.34375 6.984375 -3.625 L 6.953125 -3.625 L 5.40625 0 L -0.09375 0 L 3.453125 -22.40625 L 9.953125 -22.40625 L 8.25 -11.875 L 8.28125 -11.875 C 8.976562 -13.15625 9.941406 -14.144531 11.171875 -14.84375 C 12.398438 -15.550781 13.742188 -15.90625 15.203125 -15.90625 C 17.109375 -15.90625 18.59375 -15.34375 19.65625 -14.21875 C 20.726562 -13.101562 21.265625 -11.5625 21.265625 -9.59375 C 21.265625 -8.257812 21.0625 -6.988281 20.65625 -5.78125 C 20.25 -4.582031 19.664062 -3.519531 18.90625 -2.59375 C 18.144531 -1.664062 17.238281 -0.9375 16.1875 -0.40625 C 15.132812 0.125 13.957031 0.390625 12.65625 0.390625 Z M 10.4375 -4.40625 C 11.257812 -4.40625 11.988281 -4.582031 12.625 -4.9375 C 13.269531 -5.300781 13.769531 -5.785156 14.125 -6.390625 C 14.488281 -7.003906 14.671875 -7.675781 14.671875 -8.40625 C 14.671875 -9.21875 14.390625 -9.863281 13.828125 -10.34375 C 13.265625 -10.820312 12.503906 -11.0625 11.546875 -11.0625 C 10.742188 -11.0625 10.023438 -10.878906 9.390625 -10.515625 C 8.753906 -10.160156 8.25 -9.6875 7.875 -9.09375 C 7.5 -8.507812 7.3125 -7.847656 7.3125 -7.109375 C 7.3125 -6.304688 7.59375 -5.65625 8.15625 -5.15625 C 8.71875 -4.65625 9.476562 -4.40625 10.4375 -4.40625 Z M 10.4375 -4.40625 "/>
            </g>
        </g>
        <g style="fill:#00040f;fill-opacity:1;">
            <g transform="translate(280.721453, 260.776036)">
                <path style="stroke:none"
                      d="M 13.734375 -15.90625 C 15.273438 -15.90625 16.421875 -15.363281 17.171875 -14.28125 C 17.921875 -13.195312 18.207031 -11.644531 18.03125 -9.625 L 12.09375 -8.40625 C 12.226562 -9.457031 12.148438 -10.269531 11.859375 -10.84375 C 11.578125 -11.414062 11.113281 -11.703125 10.46875 -11.703125 C 9.769531 -11.703125 9.171875 -11.363281 8.671875 -10.6875 C 8.171875 -10.019531 7.832031 -9.085938 7.65625 -7.890625 L 6.390625 0 L -0.09375 0 L 2.34375 -15.515625 L 7.625 -15.515625 L 8.09375 -12.515625 L 8.125 -12.515625 C 8.769531 -13.585938 9.582031 -14.421875 10.5625 -15.015625 C 11.539062 -15.609375 12.597656 -15.90625 13.734375 -15.90625 Z M 13.734375 -15.90625 "/>
            </g>
        </g>
        <g style="fill:#00040f;fill-opacity:1;">
            <g transform="translate(298.691422, 260.776036)">
                <path style="stroke:none"
                      d="M 6.75 0.390625 C 4.789062 0.390625 3.25 -0.175781 2.125 -1.3125 C 1.007812 -2.457031 0.453125 -4 0.453125 -5.9375 C 0.453125 -7.28125 0.664062 -8.550781 1.09375 -9.75 C 1.519531 -10.945312 2.125 -12.003906 2.90625 -12.921875 C 3.6875 -13.847656 4.613281 -14.578125 5.6875 -15.109375 C 6.769531 -15.640625 7.972656 -15.90625 9.296875 -15.90625 C 10.679688 -15.90625 11.851562 -15.550781 12.8125 -14.84375 C 13.769531 -14.144531 14.410156 -13.15625 14.734375 -11.875 L 14.765625 -11.875 L 16.296875 -15.515625 L 21.8125 -15.515625 L 19.375 0 L 13.859375 0 L 13.46875 -3.5625 L 13.4375 -3.5625 C 12.738281 -2.3125 11.789062 -1.335938 10.59375 -0.640625 C 9.40625 0.046875 8.125 0.390625 6.75 0.390625 Z M 10.171875 -4.40625 C 10.992188 -4.40625 11.71875 -4.582031 12.34375 -4.9375 C 12.976562 -5.300781 13.476562 -5.785156 13.84375 -6.390625 C 14.21875 -7.003906 14.40625 -7.675781 14.40625 -8.40625 C 14.40625 -9.195312 14.125 -9.835938 13.5625 -10.328125 C 13 -10.816406 12.238281 -11.0625 11.28125 -11.0625 C 10.476562 -11.0625 9.753906 -10.878906 9.109375 -10.515625 C 8.472656 -10.160156 7.96875 -9.6875 7.59375 -9.09375 C 7.226562 -8.507812 7.046875 -7.847656 7.046875 -7.109375 C 7.046875 -6.304688 7.328125 -5.65625 7.890625 -5.15625 C 8.453125 -4.65625 9.210938 -4.40625 10.171875 -4.40625 Z M 10.171875 -4.40625 "/>
            </g>
        </g>
        <g style="fill:#00040f;fill-opacity:1;">
            <g transform="translate(320.411414, 260.776036)">
                <path style="stroke:none"
                      d="M 13.734375 -15.90625 C 15.273438 -15.90625 16.421875 -15.363281 17.171875 -14.28125 C 17.921875 -13.195312 18.207031 -11.644531 18.03125 -9.625 L 12.09375 -8.40625 C 12.226562 -9.457031 12.148438 -10.269531 11.859375 -10.84375 C 11.578125 -11.414062 11.113281 -11.703125 10.46875 -11.703125 C 9.769531 -11.703125 9.171875 -11.363281 8.671875 -10.6875 C 8.171875 -10.019531 7.832031 -9.085938 7.65625 -7.890625 L 6.390625 0 L -0.09375 0 L 2.34375 -15.515625 L 7.625 -15.515625 L 8.09375 -12.515625 L 8.125 -12.515625 C 8.769531 -13.585938 9.582031 -14.421875 10.5625 -15.015625 C 11.539062 -15.609375 12.597656 -15.90625 13.734375 -15.90625 Z M 13.734375 -15.90625 "/>
            </g>
        </g>
        <g style="fill:#00040f;fill-opacity:1;">
            <g transform="translate(338.441396, 260.776036)">
                <path style="stroke:none"
                      d="M 5.875 6.84375 C 4.238281 6.84375 2.65625 6.613281 1.125 6.15625 C -0.40625 5.707031 -1.628906 5.125 -2.546875 4.40625 L -0.03125 -0.125 C 0.75 0.476562 1.691406 0.96875 2.796875 1.34375 C 3.910156 1.726562 5 1.921875 6.0625 1.921875 C 7.738281 1.921875 9.144531 1.523438 10.28125 0.734375 C 11.425781 -0.0546875 12.097656 -1.101562 12.296875 -2.40625 L 12.515625 -3.6875 L 12.484375 -3.6875 C 11.878906 -2.53125 11 -1.613281 9.84375 -0.9375 C 8.695312 -0.269531 7.445312 0.0625 6.09375 0.0625 C 4.164062 0.0625 2.726562 -0.519531 1.78125 -1.6875 C 0.832031 -2.863281 0.519531 -4.398438 0.84375 -6.296875 L 2.3125 -15.515625 L 8.8125 -15.515625 L 7.53125 -7.3125 C 7.382812 -6.394531 7.5 -5.664062 7.875 -5.125 C 8.25 -4.582031 8.8125 -4.3125 9.5625 -4.3125 C 10.488281 -4.3125 11.273438 -4.613281 11.921875 -5.21875 C 12.578125 -5.820312 12.984375 -6.613281 13.140625 -7.59375 L 14.375 -15.515625 L 20.875 -15.515625 L 18.75 -2.0625 C 18.46875 -0.269531 17.742188 1.289062 16.578125 2.625 C 15.421875 3.957031 13.921875 4.992188 12.078125 5.734375 C 10.242188 6.472656 8.175781 6.84375 5.875 6.84375 Z M 5.875 6.84375 "/>
            </g>
        </g>
        <g style="fill:#00040f;fill-opacity:1;">
            <g transform="translate(359.238266, 260.776036)">
                <path style="stroke:none" d=""/>
            </g>
        </g>
        <g clip-rule="nonzero" clip-path="url(#9e14c4ae68)">
            <path style=" stroke:none;fill-rule:nonzero;fill:#efcb67;fill-opacity:1;"
                  d="M 60.203125 163.585938 L 0.339844 163.585938 C 0.339844 130.527344 27.140625 103.722656 60.203125 103.722656 Z M 60.203125 163.585938 L 60.203125 223.449219 C 93.265625 223.449219 120.066406 196.648438 120.066406 163.585938 Z M 18.363281 177.496094 C 10.789062 185.070312 10.789062 197.351562 18.363281 204.925781 C 25.9375 212.5 38.21875 212.5 45.792969 204.925781 C 53.367188 197.351562 53.367188 185.070312 45.792969 177.496094 C 38.21875 169.921875 25.9375 169.921875 18.363281 177.496094 Z M 102.507812 147.371094 C 110.082031 139.796875 110.082031 127.515625 102.507812 119.941406 C 94.933594 112.367188 82.652344 112.367188 75.078125 119.941406 C 67.503906 127.515625 67.503906 139.796875 75.078125 147.371094 C 82.652344 154.945312 94.933594 154.945312 102.507812 147.371094 Z M 102.507812 147.371094 "/>
        </g>
    </g>
</svg>